<svg id="Laag_1" data-name="Laag 1" xmlns="http://www.w3.org/2000/svg" viewBox="0 0 979.57 746.83"><defs><style>.cls-1{fill:#8494a0;}.cls-2{fill:#3d98d6;}.cls-3{fill:#c6354e;}.cls-4{fill:#f0c947;}.cls-5{font-size:190.49px;fill:#1d4964;}.cls-5,.cls-9{font-family:Quicksand-Bold, Quicksand;font-weight:700;}.cls-6{letter-spacing:-0.03em;}.cls-7{letter-spacing:-0.06em;}.cls-8{letter-spacing:0em;}.cls-9{font-size:59.54px;fill:#fff;}.cls-10{letter-spacing:-0.01em;}.cls-11{letter-spacing:0em;}.cls-12{letter-spacing:-0.02em;}.cls-13{fill:#902c3a;}.cls-14{fill:#db903f;}.cls-15{fill:#3580b1;}</style></defs><rect class="cls-1" x="164.17" y="678.51" width="648.05" height="68.32" rx="34.16"/><path class="cls-2" d="M695.48,25.66C694.8,14.85,680.37,6.29,672.11,16c-35.87,42.07-60,92-93.88,135.46-57.92,74.2-142.19,87.34-199.54,5.07-17.22-24.71-29.88-52-42.87-79.17C327,58.89,322,35.75,308.49,19.93c-22.12-26-36.65-5.66-32.35,23.66,7.42,50.66,16.77,102.47,39.42,148.81C348.11,259,382.24,325,410.39,393.66c16.4,40,24.21,144.85,88.95,129.9,17-3.91,31.25-15.73,41.58-29.74,52.09-70.67,46.8-173,86.75-251C661.63,176.43,700.4,103.9,695.48,25.66Z" transform="translate(-10.2 -8)"/><path class="cls-2" d="M548.81,99.13a66.08,66.08,0,0,0-74-47.87,64.6,64.6,0,0,0-25.43,8.4,65.09,65.09,0,0,0-32.28,56.28A64.84,64.84,0,0,0,426,148.83c.06.1.13.19.19.28,1.7,2.25,3.43,4.49,5.18,6.7s3.43,4.49,5.18,6.71c.15.18.3.34.46.5a85.66,85.66,0,0,0,14.33,11,66.35,66.35,0,0,0,90.76-23.8A49.38,49.38,0,0,0,550,125.58,50.24,50.24,0,0,0,548.81,99.13Z" transform="translate(-10.2 -8)"/><path class="cls-3" d="M973.56,189.21c-16.4-5.31-43.17,3.3-54.5,7.61C900,204,882,214,862.12,218.6c-43.27,10-82.44-21.59-95.08-62.37-7.45-24.18-6.45-51-16.46-74.68-18-42.43-38.11,20.16-41.22,37.86-3,16.81-4.64,33.85-6.55,50.8-1.87,16.52-2,33.18-3.25,49.76-1,13.56-3.85,32.32-5.25,42.81-2,15.14-6.36,29.37-9.44,44.24-3.23,15.64-6.68,31.26-10.54,46.77-10.9,43.83-47,98.35-15.21,141.74,13,17.67,37.6,27.2,58,19.22,30.81-12,47.82-52,67-76.57,33-42.09,73.52-77.15,112.37-113.6C911.74,310.32,1032.8,208.4,973.56,189.21Z" transform="translate(-10.2 -8)"/><path class="cls-3" d="M895.31,121.78a38.79,38.79,0,0,0-10.74-16.71,51.85,51.85,0,0,0-22.91-13.36l-.17,0-13.85-1.86L833.8,91.68l-8.11,3.42a39.46,39.46,0,0,0-6,2.71c-.34.17-.68.35-1,.51l.8-.34a38.93,38.93,0,0,0-6.48,4.57,39.22,39.22,0,0,0-13.36,14.55,38.55,38.55,0,0,0-6.15,19.28,39.27,39.27,0,0,0,.92,20.69q2.63,6.19,5.23,12.39a52.16,52.16,0,0,0,18.61,18.6l12.39,5.23a52.22,52.22,0,0,0,27.57,0,19.21,19.21,0,0,0,2.11-.68c4.43-1.69,8.84-3.65,13.19-5.55l.43-.19a39.29,39.29,0,0,0,14.61-13.41A15.22,15.22,0,0,0,892.7,168a51.79,51.79,0,0,0,7.09-26.22A39,39,0,0,0,895.31,121.78Z" transform="translate(-10.2 -8)"/><path class="cls-4" d="M22.45,263.23c14.42-7.66,40.8-4.05,52.08-1.91,18.93,3.59,37.45,9.93,56.69,10.91,42,2.13,73.31-33.75,78.36-73.87,2.95-23.77-2.41-48.62,3-72.36,9.74-42.53,38.87,12.51,44.69,28.5,5.53,15.19,9.92,30.79,14.5,46.29,4.47,15.09,7.38,30.6,11.25,45.86,3.16,12.48,8.93,29.5,12,39.06,4.39,13.78,10.78,26.33,16.11,39.68,5.6,14.06,11.39,28.05,17.55,41.88,17.41,39.07,60.1,83.94,37.6,129.66-9.15,18.61-30.57,31.57-50.92,27.5-30.72-6.14-53.17-40.58-75.17-60.32-37.69-33.81-81.3-59.81-123.55-87.37C100.1,366-29.62,290.91,22.45,263.23Z" transform="translate(-10.2 -8)"/><path class="cls-4" d="M84.28,187.43a36.81,36.81,0,0,1,7.25-17.36,49.16,49.16,0,0,1,19.16-16.24l.16-.06,12.6-4,13.22-.55,8.12,1.85a37,37,0,0,1,6,1.54c.35.1.7.21,1.05.3l-.81-.19a36.64,36.64,0,0,1,6.8,3.2,37,37,0,0,1,14.86,11.36,36.51,36.51,0,0,1,8.93,17,37.18,37.18,0,0,1,2.55,19.44q-1.41,6.21-2.83,12.42A49.31,49.31,0,0,1,167.1,236.5l-10.69,6.93A49.46,49.46,0,0,1,130.69,248a18.08,18.08,0,0,1-2.07-.29c-4.42-.84-8.85-1.94-13.22-3l-.43-.11A37.26,37.26,0,0,1,99.13,234.5a14.35,14.35,0,0,1-4.78-4.4,49,49,0,0,1-10.94-23.27A37.07,37.07,0,0,1,84.28,187.43Z" transform="translate(-10.2 -8)"/><text class="cls-5" transform="translate(168.08 665.86)"><tspan class="cls-6">F</tspan><tspan x="100.96" y="0">AMI</tspan><tspan class="cls-7" x="431.08" y="0">L</tspan><tspan class="cls-8" x="526.71" y="0">Y</tspan></text><text class="cls-9" transform="translate(283.04 733.55)"><tspan class="cls-10">V</tspan><tspan class="cls-11" x="39.6" y="0">an Ho</tspan><tspan class="cls-12" x="209.12" y="0">r</tspan><tspan x="233.65" y="0">ebeek</tspan></text><path class="cls-13" d="M741.21,449.06c-15.85-12.79-19.88-35-21.94-55.24-3.15-31-4.2-62.44-.35-93.4,2.81-22.7,8.24-45,10.35-67.82,5-54-8.74-109.7,1.4-162.55-10.65,9.35-19.35,38.23-21.31,49.36-3,16.81-4.64,33.85-6.55,50.8-1.87,16.52-2,33.18-3.25,49.76-1,13.56-3.84,32.32-5.25,42.81-2,15.14-6.36,29.37-9.44,44.24-3.23,15.64-6.68,31.26-10.54,46.77-10.9,43.83-47,98.35-15.21,141.74,13,17.67,37.6,27.2,58,19.22,23.15-9,38.5-33.84,52.86-56C759.52,458.58,749.35,455.64,741.21,449.06Z" transform="translate(-10.2 -8)"/><path class="cls-13" d="M860.19,183.1c-19.83-4.81-35.77-21.66-41.28-41.32-4.14-14.78-2.69-30.77,3-45.08-.75.35-1.5.7-2.21,1.11-.34.18-.68.35-1,.51l.8-.34a38.93,38.93,0,0,0-6.48,4.57,39.22,39.22,0,0,0-13.36,14.55,38.55,38.55,0,0,0-6.15,19.28,39.27,39.27,0,0,0,.92,20.69q2.63,6.19,5.23,12.39a52.16,52.16,0,0,0,18.61,18.6l12.39,5.23a52.22,52.22,0,0,0,27.57,0,19.21,19.21,0,0,0,2.11-.68c4.43-1.69,8.84-3.65,13.19-5.55l.43-.19a41.9,41.9,0,0,0,4.67-3A49.16,49.16,0,0,1,860.19,183.1Z" transform="translate(-10.2 -8)"/><path class="cls-14" d="M172.72,167.26a37,37,0,0,0-14.86-11.36,36.64,36.64,0,0,0-6.8-3.2l.81.19c-.35-.09-.7-.2-1.05-.3a36.75,36.75,0,0,0-6-1.54l-.46-.1c10.66,10.85,15.5,28.14,13.33,43.69-3,21.79-17.82,41.22-37.29,51.25,2.74.65,5.5,1.28,8.25,1.8a18.08,18.08,0,0,0,2.07.29,49.46,49.46,0,0,0,25.72-4.55l10.69-6.93a49.31,49.31,0,0,0,14.27-20.42q1.42-6.21,2.83-12.42a37.18,37.18,0,0,0-2.55-19.44A36.51,36.51,0,0,0,172.72,167.26Z" transform="translate(-10.2 -8)"/><path class="cls-14" d="M311.11,325.39c-5.33-13.35-11.72-25.9-16.11-39.68-3-9.56-8.81-26.58-12-39.06-3.87-15.26-6.78-30.77-11.25-45.86-4.58-15.49-9-31.1-14.5-46.29-4.81-13.22-25.54-53-38.09-42.48,16.28,19.43,23.51,45.41,30,70.24L303.23,389.8c5.14,19.73,10.33,40.07,7.65,60.28A80.53,80.53,0,0,1,279,503.58c11,10,22.88,18.15,36.38,20.85,20.35,4.07,41.77-8.89,50.92-27.5,22.5-45.72-20.19-90.59-37.6-129.66C322.5,353.44,316.71,339.45,311.11,325.39Z" transform="translate(-10.2 -8)"/><path class="cls-15" d="M574.54,424.78a107.33,107.33,0,0,1-24.28,14.14c-27.75,11.35-62.43,8.5-84.27-12-11.53-10.85-18.66-25.45-25.55-39.7q-44.47-92-88.94-184.06c-12-24.84-24-49.7-34.25-75.32A590.69,590.69,0,0,1,283.91,9.93c-6.89,4.71-10.09,17.83-7.77,33.66,7.42,50.66,16.77,102.47,39.42,148.81C348.11,259,382.24,325,410.39,393.66c16.4,40,24.21,144.85,88.95,129.9,17-3.92,31.25-15.73,41.58-29.74C556.21,473.07,566.54,449.58,574.54,424.78Z" transform="translate(-10.2 -8)"/><path class="cls-15" d="M547.83,137.93a69.93,69.93,0,0,1-32.92,14.39c-25.87,3.77-53.41-8.31-68.16-29.9-10.28-15-14-34.21-10.92-52.14A66.86,66.86,0,0,0,426,83a65.3,65.3,0,0,0,0,65.79c.06.1.13.19.19.28,1.7,2.25,3.43,4.49,5.18,6.7s3.43,4.49,5.18,6.71c.15.17.3.34.46.5a85.66,85.66,0,0,0,14.33,11,66.35,66.35,0,0,0,90.76-23.8A50.29,50.29,0,0,0,547.83,137.93Z" transform="translate(-10.2 -8)"/></svg>